# xmcd
#
# Track frame offsets:
#	150
#	18247
#	36667
#	52360
#	70837
#	88455
#	103095
#	120612
#	136802
#	147082
#	163850
#	181947
#	200370
#	216062
#	234537
#	252155
#	266797
#	284315
#	300505
#	310785
#
# Disc length: 4367 seconds
#
# Revision: 1
# Processed by: cddbd v1.5.2PL0 Copyright (c) Steve Scherf et al.
# Submitted via: audiograbber 1.83.01
#
DISCID=2e110d14
DTITLE=Various Artist - Thmc0404
DYEAR=2004
DGENRE=Karaoke
TTITLE0=Urban, Keith - You'll Think Of Me (vocal)
TTITLE1=Rascal Flatts - Mayberry (Vocal)
TTITLE2=Proctor, Rachel - Didn't I (vocal)
TTITLE3=Big And Rich - Wild West Show (Vocal) 
TTITLE4=Otto, James - Days Of Our Lives (vocal)
TTITLE5=Denney, Kevin - Year At A Time (vocal)
TTITLE6=Mcentire, Reba - Somebody (vocal)
TTITLE7=Brock, Chad - You Are (vocal)
TTITLE8=Strait, George - Honk If You Honkytonk (vocal)
TTITLE9=Johnson, Dawn Carolyn - Simple Life (vocal)
TTITLE10=Urban, Keith - You'll Think Of Me
TTITLE11=Rascal Flatts - Mayberry
TTITLE12=Proctor, Rachel - Didn't I
TTITLE13=Big And Rich - Wild West Show
TTITLE14=Otto, James - Days Of Our Lives
TTITLE15=Denney, Kevin - Year At A Time
TTITLE16=Mcentire, Reba - Somebody
TTITLE17=Brock, Chad - You Are
TTITLE18=Strait, George  - Honk If You Honkytonk
TTITLE19=Johnson, Dawn Carolyn - Simple Life
EXTD=last name, first name
EXTT0=
EXTT1=
EXTT2=
EXTT3=
EXTT4=
EXTT5=
EXTT6=
EXTT7=
EXTT8=
EXTT9=
EXTT10=
EXTT11=
EXTT12=
EXTT13=
EXTT14=
EXTT15=
EXTT16=
EXTT17=
EXTT18=
EXTT19=
PLAYORDER=
